<?xml version="1.0" standalone="no"?>
<!DOCTYPE svg PUBLIC "-//W3C//DTD SVG 20010904//EN"
 "http://www.w3.org/TR/2001/REC-SVG-20010904/DTD/svg10.dtd">
<svg version="1.0" xmlns="http://www.w3.org/2000/svg"
 width="512.000000pt" height="512.000000pt" viewBox="0 0 512.000000 512.000000"
 preserveAspectRatio="xMidYMid meet">
<metadata>
Created by potrace 1.11, written by Peter Selinger 2001-2013
</metadata>
<g transform="translate(0.000000,512.000000) scale(0.100000,-0.100000)"
fill="#000000" stroke="none">
<path d="M1682 3919 c-50 -25 -85 -68 -102 -124 -8 -29 -10 -366 -8 -1262 l3
-1221 30 -43 c17 -23 50 -53 74 -66 l44 -23 614 0 613 0 0 -95 c0 -52 4 -95 8
-95 4 0 28 20 52 45 l44 45 48 -47 48 -47 0 97 0 97 201 0 200 0 -3 27 -3 27
-197 -3 -198 -3 0 76 0 76 -95 0 -94 0 -3 -73 -3 -72 -615 0 c-577 0 -618 1
-643 18 -89 58 -89 189 -1 248 28 18 64 19 942 19 l912 0 0 1210 0 1210 -912
0 c-911 0 -913 0 -956 -21z m1468 -569 l0 -50 -395 0 -395 0 0 43 c0 24 3 47
7 50 3 4 181 7 395 7 l388 0 0 -50z m0 -200 l0 -50 -392 2 -393 3 -3 48 -3 47
395 0 396 0 0 -50z m-200 -195 l0 -45 -295 0 -295 0 0 45 0 45 295 0 295 0 0
-45z"/>
</g>
</svg>
