<?xml version="1.0" encoding="utf-8"?>
<!-- Generator: Adobe Illustrator 15.1.0, SVG Export Plug-In . SVG Version: 6.00 Build 0)  -->
<!DOCTYPE svg PUBLIC "-//W3C//DTD SVG 1.1//EN" "http://www.w3.org/Graphics/SVG/1.1/DTD/svg11.dtd">
<svg version="1.1" id="svg-source" xmlns="http://www.w3.org/2000/svg" xmlns:xlink="http://www.w3.org/1999/xlink" x="0px" y="0px"
	 width="32px" height="32.012px" viewBox="-294 411 32 32.012" enable-background="new -294 411 32 32.012" xml:space="preserve">
<g id="map2">
	<path fill="#26A6D1" d="M-294,411.011l7.971,3l8.035-3l7.995,3l8-3v29l-8.021,3l-8.004-3l-7.991,3l-7.984-3L-294,411.011
		L-294,411.011z"/>
	<polygon fill="#2295BC" points="-286,443 -278.024,440.005 -278,440.014 -278,411.005 -286,413.995 	"/>
	<polygon fill="#2295BC" points="-270,414.005 -270,442.998 -262,440.005 -262,411.005 	"/>
	<path fill="#EFC75E" d="M-270,414.005l-7.995-3l-3.077,1.146c-5.178,5.965-3.244,10.979,3.621,17.196
		c5.789,5.242,11.776,8.312,15.451,5.652V411L-270,414.005z"/>
	<path fill="#3DB39E" d="M-262,411.005l-8,3l-7.995-3l-0.011,0.004c-7.126,6.041-3.634,9.498,2.592,15.229
		c5.029,4.631,9.057,7.32,13.414,4.77C-262.044,429.009-262,411.016-262,411.005z"/>
	<path fill="#D7B354" d="M-270,414.005v20.652c3.104,1.521,5.922,1.854,8,0.348v-23.999L-270,414.005z"/>
	<path fill="#D7B354" d="M-278,411.005l-1.685,0.629l-1.387,0.52c-5.034,5.798-3.332,10.699,3.072,16.682V411.005z"/>
	<path fill="#37A18E" d="M-262,411.005l-8,3v16.512c2.75,1.641,5.312,2.062,8,0.488C-262.044,429.009-262,411.016-262,411.005z"/>
	<path fill="#37A18E" d="M-278,411.005l-0.003,0.002h-0.002c-6.06,5.138-4.441,8.403,0.005,12.791V411.005z"/>
</g>
</svg>
