<?xml version="1.0" encoding="utf-8"?>
<!-- Generator: Adobe Illustrator 15.1.0, SVG Export Plug-In . SVG Version: 6.00 Build 0)  -->
<!DOCTYPE svg PUBLIC "-//W3C//DTD SVG 1.1//EN" "http://www.w3.org/Graphics/SVG/1.1/DTD/svg11.dtd">
<svg version="1.1" id="圖層_1" xmlns="http://www.w3.org/2000/svg" xmlns:xlink="http://www.w3.org/1999/xlink" x="0px" y="0px"
	 width="89.571px" height="128.107px" viewBox="9.16 9.893 89.571 128.107" enable-background="new 9.16 9.893 89.571 128.107"
	 xml:space="preserve">
<g id="Layer_2">
</g>
<g id="Layer_1">
	<g>
		<polygon fill="none" stroke="#FFFFFF" stroke-width="7" stroke-linejoin="round" stroke-miterlimit="10" points="12.66,117.5 
			53.946,13.393 95.232,117.5 		"/>
		
			<rect x="49.5" y="120.5" fill="#FFFFFF" stroke="#FFFFFF" stroke-width="3" stroke-linejoin="round" stroke-miterlimit="10" width="8" height="16"/>
		<path fill="none" stroke="#FFFFFF" stroke-width="4" stroke-miterlimit="10" d="M41.074,46.432c0,0,3.886,2.373,12.872,1.379
			c9.466-1.047,14.349,1.886,14.349,1.886l4.397,11.131c0,0-8.716-0.429-19.467,1.245c-11.768,1.832-17.419-2.719-17.419-2.719
			l-4.852,12.233c0,0,7.381,6.306,22.992,3.257c19.339-3.775,23.504-1.974,23.504-1.974l5.15,12.991c0,0-9.182-3.485-28.298,0.246
			c-19.348,3.777-27.003-5.31-27.003-5.31l-6.387,15.929c0,0,9.603,6.013,31.623,2.17c25.434-4.438,36.752,2.385,36.752,2.385"/>
	</g>
</g>
</svg>
