<?xml version="1.0" encoding="utf-8"?>
<!-- Generator: Adobe Illustrator 15.1.0, SVG Export Plug-In . SVG Version: 6.00 Build 0)  -->
<svg version="1.2" baseProfile="tiny" id="圖層_3"
	 xmlns="http://www.w3.org/2000/svg" xmlns:xlink="http://www.w3.org/1999/xlink" x="0px" y="0px" width="75px" height="75px"
	 viewBox="0 0 75 75" xml:space="preserve">
<g id="circle">
	<g>
		<polyline fill="#FFFFFF" points="51.372,3.257 35.298,10.103 43.056,29.833 		"/>
	</g>
	<g>
		<g>
			<polyline fill="#FFFFFF" points="29.124,71.743 43.335,61.579 31.485,43.999 			"/>
		</g>
		<g>
			<path fill="#FFFFFF" d="M37.5,62.371c-14.332,0-25.992-11.66-25.992-25.992c0-14.333,11.66-25.993,25.992-25.993
				s25.992,11.66,25.992,25.993C63.492,50.711,51.832,62.371,37.5,62.371z M37.5,13.386c-12.678,0-22.992,10.314-22.992,22.993
				c0,12.678,10.314,22.992,22.992,22.992s22.992-10.314,22.992-22.992C60.492,23.7,50.178,13.386,37.5,13.386z"/>
		</g>
	</g>
</g>
</svg>
