<?xml version="1.0" encoding="utf-8"?>
    <!-- Generator: Adobe Illustrator 15.1.0, SVG Export Plug-In . SVG Version: 6.00 Build 0)  -->
    <!DOCTYPE svg PUBLIC "-//W3C//DTD SVG 1.0//EN" "http://www.w3.org/TR/2001/REC-SVG-20010904/DTD/svg10.dtd">
    <svg version="1.0" xmlns="http://www.w3.org/2000/svg" xmlns:xlink="http://www.w3.org/1999/xlink" x="0px" y="0px" width="800px" height="600px" viewBox="0 0 800 600" enable-background="new 0 0 800 600" xml:space="preserve">
        <symbol id="g">
            <g opacity="0.9">
                <g>
                    <rect x="44.84" y="30.187" width="35.168" height="4" />
                </g>
                <g>
                    <rect x="44.84" y="62.448" width="35.168" height="4" />
                </g>
                <g>
                    <rect x="44.84" y="46.317" width="35.168" height="4" />
                </g>
                <g>
                    <rect x="31.311" y="30.187" width="5.537" height="4" />
                </g>
                <g>
                    <rect x="31.311" y="62.448" width="5.537" height="4" />
                </g>
                <g>
                    <rect x="44.84" y="78.507" width="35.168" height="4" />
                </g>
                <g>
                    <rect x="31.311" y="78.507" width="5.537" height="4" />
                </g>
                <g>
                    <rect x="31.311" y="46.317" width="5.537" height="4" />
                </g>
            </g>
        </symbol>
        <g id="_x30_2">
            <g>
                <polyline fill="#FFFFFF" stroke="#000000" stroke-width="3" stroke-miterlimit="10" points="62.864,24.31 51.2,29.276 
			56.828,43.591 		" />
                <g>
                    <path fill="none" stroke="#000000" stroke-width="3" stroke-miterlimit="10" d="M31.008,77.734
				c5.106,5.64,12.483,9.183,20.69,9.183c15.409,0,27.899-12.491,27.899-27.9c0-15.407-12.49-27.898-27.899-27.898" />
                </g>
            </g>
        </g>
        <g id="_x30_3">
            <polyline opacity="0.9" fill="#009A9D" points="83.932,70.173 55.765,42.702 27.433,70.173 	" />
        </g>
        <g id="_x30_4">
            <circle opacity="0.9" fill="#009A9D" cx="56.263" cy="56.263" r="56.263" />
            <g>
                <polyline fill="#FFFFFF" points="68.573,19.897 56.45,25.062 62.3,39.943 		" />
                <polyline fill="#FFFFFF" points="38.696,89.725 50.821,84.561 44.969,69.68 		" />
                <g>
                    <circle fill="none" stroke="#FFFFFF" stroke-width="3" stroke-miterlimit="10" cx="56.968" cy="55.979" r="29.002" />
                </g>
            </g>
        </g>
    </svg>
