<?xml version="1.0" encoding="utf-8"?>
<!-- Generator: Adobe Illustrator 15.1.0, SVG Export Plug-In . SVG Version: 6.00 Build 0)  -->
<!DOCTYPE svg PUBLIC "-//W3C//DTD SVG 1.1//EN" "http://www.w3.org/Graphics/SVG/1.1/DTD/svg11.dtd">
<svg version="1.1" id="svg-source" xmlns="http://www.w3.org/2000/svg" xmlns:xlink="http://www.w3.org/1999/xlink" x="0px" y="0px"
	 width="32px" height="32.01px" viewBox="0 0 32 32.01" enable-background="new 0 0 32 32.01" xml:space="preserve">
<g id="backpack">
	<path fill="#BF392C" d="M2,17.005h28c1.104,0,2,0.896,2,2v9c0,1.104-0.896,2-2,2H2c-1.104,0-2-0.896-2-2v-9
		C0,17.901,0.896,17.005,2,17.005z"/>
	<path fill="#324D5B" d="M16,2.005c1.305,0,2.401,0.839,2.815,2H21c0-2.209-2.238-4-5-4c-2.761,0-5,1.791-5,4h2.184
		C13.598,2.844,14.696,2.005,16,2.005z"/>
	<path fill="#E2574C" d="M9,4.005h14c3.311,0,6,2.688,6,6v20c0,1.104-0.896,2-2,2H5c-1.104,0-2-0.896-2-2v-20
		C3,6.692,5.686,4.005,9,4.005z"/>
	<path fill="#BF392C" d="M6,4.005h20c2.209,0,4,1.791,4,4v4c0,2.209-1.791,4-4,4H6c-2.209,0-4-1.791-4-4v-4
		C2,5.796,3.791,4.005,6,4.005z"/>
	<path fill="#EFC75E" d="M8,25.005c0,0,0.771,2,1.531,2c0.739,0,1.469-2,1.469-2v-21H8V25.005z M21,4.005v21c0,0,0.77,2,1.529,2
		c0.74,0,1.471-2,1.471-2v-21H21z"/>
	<path fill="#E4E7E7" d="M7,23.005h5v-3H7V23.005z M20,20.005v3h5v-3H20z"/>
</g>
</svg>
