<?xml version="1.0" encoding="utf-8"?>
<!-- Generator: Adobe Illustrator 15.1.0, SVG Export Plug-In . SVG Version: 6.00 Build 0)  -->
<!DOCTYPE svg PUBLIC "-//W3C//DTD SVG 1.1//EN" "http://www.w3.org/Graphics/SVG/1.1/DTD/svg11.dtd">
<svg version="1.1" id="svg-source" xmlns="http://www.w3.org/2000/svg" xmlns:xlink="http://www.w3.org/1999/xlink" x="0px" y="0px"
	 width="32px" height="32.01px" viewBox="0 0 32 32.01" enable-background="new 0 0 32 32.01" xml:space="preserve">
<g id="mountain">
	<path fill="#DBDEE0" d="M31.068,10.725c0.043-0.233,0.072-0.474,0.072-0.72c0-2.211-1.791-4-4-4c-1.576,0-2.927,0.92-3.577,2.242
		c-0.545-0.75-1.424-1.244-2.423-1.244c-1.657,0-3,1.346-3,3.002c0,0.242,0.036,0.478,0.092,0.703
		c-0.662,0.551-1.092,1.369-1.092,2.297c0,1.656,1.343,3,3,3h9c1.657,0,3-1.344,3-3C32.14,12.085,31.717,11.274,31.068,10.725z"/>
	<path fill="#3DB39E" d="M16.14,0.005l16,32h-32L16.14,0.005z"/>
	<path fill="#E4E7E7" d="M10.14,11.005l3,3l3-3l3,3l3-3l-5-11h-2L10.14,11.005z"/>
	<path fill="#4A4A4A" d="M18.14,29.005h2v3h-2V29.005z"/>
	<polygon fill="#277264" points="24.106,29.005 20.933,25.005 23.14,25.005 19.14,20.005 15.14,25.005 17.34,25.005 14.14,29.005 	
		"/>
	<polygon fill="#349886" points="7.14,18.005 0.14,32.005 1.14,32.005 15.14,18.005 	"/>
	<path fill="#ECEEEE" d="M14.068,14.725c0.042-0.233,0.072-0.474,0.072-0.72c0-2.211-1.791-4-4-4c-1.576,0-2.926,0.92-3.577,2.242
		c-0.545-0.75-1.424-1.244-2.423-1.244c-1.657,0-3,1.346-3,3.002c0,0.242,0.036,0.478,0.091,0.703
		C0.57,15.259,0.14,16.077,0.14,17.005c0,1.656,1.343,3,3,3h9c1.657,0,3-1.344,3-3C15.14,16.085,14.718,15.274,14.068,14.725z"/>
</g>
</svg>
