<?xml version="1.0" encoding="utf-8"?>
<!-- Generator: Adobe Illustrator 15.1.0, SVG Export Plug-In . SVG Version: 6.00 Build 0)  -->
<svg version="1.2" baseProfile="tiny" xmlns="http://www.w3.org/2000/svg" xmlns:xlink="http://www.w3.org/1999/xlink" x="0px"
	 y="0px" width="511.065px" height="148px" viewBox="0 0 511.065 148" xml:space="preserve">
<g id="Layer_2">
</g>
<g id="Layer_1">
	<g>
		<path fill="#FFFFFF" stroke="#FFFFFF" stroke-miterlimit="10" d="M147.022,56.196c3.298,0.175,5.078,2.083,5.339,5.729
			c-0.261,1.911-1.259,4.602-2.995,8.073c-4.167,9.983-7.682,21.702-10.547,35.156c-0.956,4.341-3.082,6.598-6.38,6.771
			c-4.167-0.346-6.25-2.82-6.25-7.422c0-4.252,1.605-11.24,4.817-20.963c4.34-13.281,7.813-21.397,10.417-24.349
			C142.986,57.195,144.851,56.196,147.022,56.196z M173.194,21.821c2.429,0.087,4.513,0.911,6.25,2.474
			c7.638,15.886,13.237,30.469,16.797,43.75c3.386,12.936,5.078,27.04,5.078,42.317c0,9.548-1.432,16.491-4.297,20.833
			c-3.906,5.209-8.551,7.813-13.932,7.813c-3.04,0-5.514-0.738-7.422-2.213c-2.431-0.956-3.821-2.995-4.167-6.12
			c0.606-3.473,2.517-5.383,5.729-5.729c0.867,0,1.823,0.304,2.865,0.912c1.823,0.781,2.995,1.172,3.516,1.172
			c1.735,0,3.038-1.26,3.906-3.776c1.214-2.519,1.823-6.641,1.823-12.37c0-11.892-1.217-23.177-3.646-33.854
			c-2.431-10.85-7.987-25.606-16.667-44.271c-1.042-1.823-1.563-3.731-1.563-5.729C167.811,23.904,169.721,22.169,173.194,21.821z
			 M217.465,52.029c3.21,0,11.371,9.375,24.479,28.125c2.344,1.65,3.559,3.561,3.646,5.729c-0.348,3.385-2.258,5.253-5.729,5.599
			c-1.738,0-3.561-0.997-5.469-2.995c-5.817-6.683-12.37-15.059-19.662-25.13c-2.171-1.648-3.343-3.688-3.516-6.12
			C211.561,53.853,213.644,52.117,217.465,52.029z"/>
		<path fill="#FFFFFF" stroke="#FFFFFF" stroke-miterlimit="10" d="M269.027,85.884c4.688,0,9.115,0.087,13.281,0.261
			c-0.175-2.169-0.305-4.34-0.391-6.511c0.173-5.208,2.083-8.028,5.729-8.464c2.864,0,4.688,1.217,5.469,3.646
			c0.954,2.083,1.432,4.167,1.432,6.25c0.085,1.998,0.13,3.906,0.13,5.729c3.906,0.348,7.507,0.695,10.807,1.042
			c3.646,0.956,5.554,2.909,5.729,5.859c-0.435,3.646-3.082,5.556-7.942,5.729c-2.865,0-5.599-0.043-8.203-0.13
			c0.085,2.431,0.173,4.905,0.26,7.422c2.256,0.175,4.6,0.825,7.031,1.953c4.167,1.563,7.638,2.994,10.417,4.297
			c3.21,1.997,5.034,4.254,5.469,6.771c5.294-6.943,10.59-13.021,15.886-18.229c1.302-1.127,2.646-1.865,4.036-2.213
			c-0.26-2.344-0.521-4.6-0.781-6.771c-1.823,0.175-3.343,0.348-4.557,0.521c-4.515,0.869-7.9,1.433-10.156,1.692
			c-4.167-0.173-6.468-2.083-6.901-5.729c0.173-2.69,1.908-4.6,5.208-5.729c3.038-0.954,8.073-1.648,15.104-2.083
			c-0.175-1.042-0.305-2.083-0.391-3.125c0.173-5.294,2.083-8.116,5.729-8.464c2.777,0,4.601,1.217,5.469,3.646
			c0.781,1.998,1.172,4.124,1.172,6.38c0.086,0.26,0.131,0.521,0.131,0.781c4.252-0.085,8.939-0.173,14.063-0.261
			c7.985,0,12.151,1.911,12.5,5.729c-0.176,3.385-2.084,5.253-5.729,5.599c-7.64,0-14.15,0.088-19.531,0.261
			c0.606,4.774,1.172,9.419,1.692,13.932c0.173,0,0.391,0,0.651,0c6.335,0.261,11.892,1.433,16.667,3.516
			c4.772,1.737,7.204,4.036,7.291,6.901c-0.436,4.339-2.344,6.771-5.729,7.291c-0.869,0-2.171-0.478-3.906-1.432
			c-2.952-1.65-7.467-2.734-13.542-3.256c0.085,1.042,0.216,2.084,0.391,3.125c0.521,3.559,0.781,6.336,0.781,8.334
			c-0.348,3.906-2.083,5.989-5.208,6.25c-3.125-0.175-5.209-1.78-6.25-4.818c-0.349-1.216-0.739-3.082-1.172-5.599
			c-0.436-4.081-0.869-8.115-1.302-12.109c-4.515,5.469-9.245,11.198-14.193,17.188c-2.083,2.083-4.124,3.168-6.12,3.255
			c-3.212-0.436-4.993-2.344-5.338-5.729c0.085-0.696,0.173-1.39,0.26-2.084c-0.521,0.173-1.086,0.346-1.693,0.521
			c-3.3,0-6.12-1.042-8.463-3.125c-2.519-1.042-5.383-2.084-8.594-3.125c0.085,0.693,0.13,1.257,0.13,1.692
			c0.173,3.559,0.26,6.293,0.26,8.203c-0.348,3.906-2.083,5.945-5.208,6.12c-3.212-0.175-5.296-1.738-6.25-4.688
			c-0.175-1.217-0.348-3.083-0.521-5.6c-0.088-3.125-0.218-6.25-0.391-9.375c-3.733,3.992-7.597,8.159-11.589,12.5
			c-2.171,1.996-4.297,3.038-6.38,3.125c-3.04-0.436-4.775-2.344-5.208-5.729c0.173-2.084,0.912-4.212,2.213-6.381
			c5.294-6.335,10.677-11.892,16.146-16.666c1.388-1.128,2.777-1.866,4.167-2.214c-0.175-1.042-0.26-2.083-0.26-3.125
			c-5.729-0.346-10.852-0.824-15.365-1.433c-3.646-0.78-5.556-2.689-5.729-5.729C261.909,87.837,264.34,85.971,269.027,85.884z
			 M278.402,30.024c11.458,0.175,22.438,0.521,32.943,1.042c0-0.694-0.045-1.345-0.13-1.953c0.173-5.294,2.083-8.116,5.729-8.463
			c2.777,0,4.6,1.216,5.469,3.646c0.867,2.083,1.302,4.167,1.302,6.25c0,0.436,0,0.826,0,1.172
			c12.934,0.957,25.043,2.171,36.328,3.646c4.86,1.563,7.334,3.776,7.422,6.641c-0.348,4.427-2.259,6.901-5.729,7.422
			c-3.646,0-9.462-0.694-17.447-2.083c-5.644-0.694-12.197-1.345-19.662-1.953c0.26,4.863,0.521,9.505,0.781,13.933
			c0.173,2.431,0.26,4.297,0.26,5.599c-0.26,3.994-1.998,6.077-5.208,6.25c-3.125-0.173-5.208-1.692-6.25-4.557
			c-0.088-0.954-0.261-2.299-0.521-4.037c-0.26-4.079-0.565-8.116-0.912-12.109c-25.087,15.625-39.02,23.438-41.797,23.438
			c-3.994,0-6.077-1.735-6.25-5.208c0.173-2.95,2.083-5.034,5.729-6.25c12.933-8.506,22.917-14.669,29.948-18.49
			c-6.686-0.346-13.847-0.651-21.484-0.912c-5.123-0.521-7.77-2.777-7.943-6.771C271.153,32.368,273.627,30.285,278.402,30.024z
			 M339.861,47.212c3.038,0,6.12,0.911,9.245,2.734c4.513,2.344,8.158,4.602,10.938,6.771c3.818,2.692,5.729,5.817,5.729,9.375
			c-0.349,3.386-2.259,5.296-5.729,5.729c-3.473,0-6.38-1.042-8.724-3.125c-3.561-2.517-7.553-4.773-11.979-6.771
			c-3.473-2.344-5.383-5.164-5.729-8.463C333.784,49.556,335.867,47.472,339.861,47.212z"/>
		<path fill="#FFFFFF" stroke="#FFFFFF" stroke-miterlimit="10" d="M403.793,52.941c1.908,0,6.205,0.26,12.891,0.781
			c-0.521-9.375-0.826-15.841-0.911-19.401c0.173-3.992,2.083-6.075,5.729-6.25c4.339,0,6.813,2.258,7.422,6.771
			c0.26,6.686,0.563,13.326,0.911,19.922c6.162,0.436,9.851,0.739,11.067,0.912c4.252,1.39,6.466,3.646,6.641,6.771
			c-0.348,3.906-2.734,5.989-7.161,6.25c-1.998,0-5.296-0.173-9.896-0.521c0.346,6.771,0.693,13.412,1.041,19.921
			c0.694,0.261,1.388,0.565,2.084,0.912c3.558,2.083,6.641,3.43,9.244,4.036c4.34,0.781,6.641,2.691,6.901,5.729
			c-0.261,4.515-2.562,6.989-6.901,7.422c-1.302,0-3.039-0.346-5.208-1.041c-1.737-0.694-3.516-1.433-5.339-2.214
			c0.086,2.344,0.216,4.602,0.391,6.771c0.086,3.04,0.216,5.339,0.391,6.901c-0.26,3.906-2.213,5.989-5.859,6.25
			c-4.166-0.088-6.771-1.998-7.813-5.729c-0.348-8.158-0.65-15.755-0.911-22.786c-3.906,5.469-7.9,11.155-11.979,17.058
			c-2.258,1.91-4.342,2.909-6.25,2.994c-3.212-0.346-4.947-2.256-5.208-5.729c0-1.996,0.651-4.037,1.953-6.12
			c6.335-9.896,12.585-18.402,18.75-25.521c0.693-0.521,1.302-0.954,1.823-1.302c-0.088-3.038-0.218-5.859-0.391-8.464
			c-4.428-0.346-9.375-0.736-14.844-1.172c-4.688-0.867-7.119-2.995-7.292-6.38C395.242,55.459,398.149,53.201,403.793,52.941z
			 M451.319,43.045c3.125,0,10.85,0.391,23.177,1.172c-0.348-6.944-0.608-11.979-0.781-15.104c0.173-4.079,2.084-6.163,5.729-6.25
			c4.252,0,6.641,2.258,7.161,6.771c0.346,5.035,0.694,10.113,1.042,15.234c9.114,0.435,14.496,0.738,16.146,0.911
			c4.34,1.39,6.596,3.603,6.771,6.641c-0.349,3.994-2.734,6.077-7.162,6.25c-2.952,0-7.857-0.13-14.713-0.391
			c0.866,12.24,1.692,24.306,2.474,36.198c1.215,0.26,2.344,0.695,3.386,1.302c3.298,1.822,6.25,3.039,8.854,3.646
			c4.252,0.695,6.466,2.604,6.641,5.729c-0.175,4.427-2.389,6.858-6.641,7.291c-1.39,0-3.125-0.303-5.208-0.911
			c-1.998-0.606-3.994-1.433-5.989-2.474c0.26,3.212,0.476,6.337,0.65,9.375c0.261,3.558,0.434,6.205,0.521,7.942
			c-0.176,4.079-2.084,6.205-5.729,6.38c-4.167-0.087-6.729-1.997-7.683-5.729c-0.868-12.325-1.607-23.438-2.213-33.333
			c-8.248,8.681-16.712,17.838-25.391,27.474c-2.259,2.083-4.342,3.167-6.25,3.255c-3.213-0.436-4.948-2.344-5.209-5.729
			c0-2.168,0.651-4.252,1.953-6.25c10.763-13.193,21.57-24.651,32.422-34.374c0.434-0.346,0.867-0.694,1.303-1.042
			c-0.521-7.204-0.912-13.672-1.172-19.401c-7.38-0.433-15.931-0.912-25.651-1.432c-4.775-0.867-7.249-2.95-7.422-6.25
			C442.596,45.519,445.59,43.22,451.319,43.045z"/>
	</g>
	<path fill="#FFFFFF" stroke="#FFFFFF" stroke-miterlimit="10" d="M443.689,96.493"/>
	<g>
		<polygon fill="none" stroke="#FFFFFF" stroke-width="7" stroke-linejoin="round" stroke-miterlimit="10" points="12.66,117.5 
			53.946,13.393 95.232,117.5 		"/>
		
			<rect x="49.5" y="120.5" fill="#FFFFFF" stroke="#FFFFFF" stroke-width="3" stroke-linejoin="round" stroke-miterlimit="10" width="8" height="16"/>
		<path fill="none" stroke="#FFFFFF" stroke-width="4" stroke-miterlimit="10" d="M41.074,46.432c0,0,3.886,2.373,12.873,1.379
			c9.465-1.047,14.348,1.886,14.348,1.886l4.398,11.131c0,0-8.716-0.429-19.467,1.245c-11.768,1.832-17.419-2.719-17.419-2.719
			l-4.852,12.233c0,0,7.381,6.306,22.993,3.257c19.338-3.775,23.503-1.974,23.503-1.974l5.151,12.992c0,0-9.182-3.486-28.298,0.246
			c-19.348,3.777-27.003-5.31-27.003-5.31l-6.387,15.929c0,0,9.603,6.012,31.623,2.169c25.434-4.438,36.752,2.385,36.752,2.385"/>
	</g>
</g>
</svg>
